<svg xmlns="http://www.w3.org/2000/svg" width="24" height="24" viewBox="0 0 16 16" xml:space="preserve"><g><path style="stroke:none;stroke-width:1;stroke-dasharray:none;stroke-linecap:butt;stroke-dashoffset:0;stroke-linejoin:miter;stroke-miterlimit:4;fill:#41b375;fill-rule:nonzero;opacity:1" vector-effect="non-scaling-stroke" transform="translate(-1.79 -2)" d="M5.5 3a2.5 2.5 0 0 0-2.302 1.523A2 2 0 1 1 3 8.437V14.5A2.5 2.5 0 0 0 5.5 17h9a2.5 2.5 0 0 0 2.5-2.5v-9A2.5 2.5 0 0 0 14.5 3h-9ZM7 8.5a.5.5 0 0 1 .5-.5h5a.5.5 0 0 1 0 1h-5a.5.5 0 0 1-.5-.5Zm.5 2.5h3a.5.5 0 0 1 0 1h-3a.5.5 0 0 1 0-1Z"/><path style="stroke:none;stroke-width:1;stroke-dasharray:none;stroke-linecap:butt;stroke-dashoffset:0;stroke-linejoin:miter;stroke-miterlimit:4;fill:#41b375;fill-rule:nonzero;opacity:1" vector-effect="non-scaling-stroke" transform="translate(-1.79 -2)" d="M3.5 5.5a1 1 0 1 0 0 2 1 1 0 0 0 0-2Z"/></g></svg>